<svg xmlns="http://www.w3.org/2000/svg" viewBox="0 0 640 640" width="640" height="640">
  <!-- 可爱小树苗 - 渐变+星星版 -->
  <defs>
    <linearGradient id="grad" x1="0" y1="1" x2="0.3" y2="0">
      <stop offset="0%" stop-color="#15803d"/>
      <stop offset="60%" stop-color="#22c55e"/>
      <stop offset="100%" stop-color="#4ade80"/>
    </linearGradient>
  </defs>
  <!-- 主体 -->
  <path fill="url(#grad)" d="M576 96c0 108.1-76.6 198.3-178.4 219.4c-7.9-58.1-34-110.4-72.5-150.9C365.2 104 433.9 64 512 64h32c17.7 0 32 14.3 32 32M64 160c0-17.7 14.3-32 32-32h32c123.7 0 224 100.3 224 224v192c0 17.7-14.3 32-32 32s-32-14.3-32-32V384C164.3 384 64 283.7 64 160"/>
  <!-- 左叶脉 -->
  <path d="M220 300 Q180 240 160 190" stroke="#4ade80" stroke-width="4" stroke-linecap="round" fill="none" opacity="0.4"/>
  <!-- 右叶脉 -->
  <path d="M400 280 Q440 200 480 140" stroke="#4ade80" stroke-width="4" stroke-linecap="round" fill="none" opacity="0.4"/>
  <!-- 小星星装饰 -->
  <circle cx="190" cy="220" r="6" fill="white" opacity="0.6"/>
  <circle cx="205" cy="195" r="3.5" fill="white" opacity="0.45"/>
  <circle cx="470" cy="150" r="5" fill="white" opacity="0.5"/>
  <circle cx="490" cy="125" r="3" fill="white" opacity="0.35"/>
</svg>
